<svg xmlns="http://www.w3.org/2000/svg" width="550" height="550" id="watermelon">
  <path fill="none" stroke="#000" stroke-linecap="round" stroke-linejoin="round" stroke-miterlimit="10" stroke-width="20" d="M19 443.396c117.22 116.9 307.008 116.806 424.105-.292C560.203 326.007 560.297 136.22 443.397 19L19 443.396z"></path>
  <path fill="none" stroke="#000" stroke-linecap="round" stroke-linejoin="round" stroke-miterlimit="10" stroke-width="20" d="M47.792 414.604c101.318 100.998 265.323 100.904 366.519-.292 101.195-101.195 101.29-265.2.292-366.518L47.792 414.604z"></path>
  <path fill="none" stroke="#000" stroke-linecap="round" stroke-linejoin="round" stroke-miterlimit="10" stroke-width="20" d="M397.518 167.284c12.993-3.482 25.854 2.375 28.723 13.083 2.87 10.709-5.339 22.212-18.333 25.694-12.995 3.482-38.934-10.349-38.934-10.349s15.548-24.946 28.544-28.428zm10.39 92.963c12.995 3.481 21.204 14.985 18.333 25.692-2.869 10.71-15.73 16.567-28.723 13.086-12.996-3.482-28.543-28.43-28.543-28.43s25.938-13.831 38.933-10.348zm-37.484 85.702c9.513 9.513 10.871 23.579 3.032 31.417-7.84 7.84-21.906 6.483-31.419-3.029-9.513-9.514-10.504-38.893-10.504-38.893s29.379.993 38.891 10.505zm-75.311 55.479c3.481 12.995-2.376 25.855-13.083 28.724-10.709 2.87-22.212-5.339-25.695-18.333-3.481-12.995 10.35-38.933 10.35-38.933s24.945 15.548 28.428 28.542zm-92.963 10.391c-3.482 12.994-14.985 21.204-25.692 18.333-10.709-2.869-16.568-15.73-13.087-28.724 3.483-12.995 28.43-28.542 28.43-28.542s13.831 25.938 10.349 38.933z"></path>
</svg>
